<svg width="23" height="23" viewBox="0 0 23 23" fill="none" xmlns="http://www.w3.org/2000/svg">
<path opacity="0.54" fill-rule="evenodd" clip-rule="evenodd" d="M15.385 14.5H16.3775L22.6125 20.75L20.7488 22.6138L14.5013 16.375V15.385L14.1563 15.0425C12.735 16.26 10.8938 17 8.875 17C4.3875 17 0.75 13.3625 0.75 8.87502C0.75 4.38752 4.3875 0.750021 8.875 0.750021C13.3625 0.750021 17 4.38752 17 8.87502C17 10.8938 16.2588 12.7363 15.04 14.1575L15.385 14.5ZM8.875 14.5C5.7675 14.5 3.25 11.9825 3.25 8.87502C3.25 5.76877 5.7675 3.25002 8.875 3.25002C11.9813 3.25002 14.5 5.76877 14.5 8.87502C14.5 11.9825 11.9813 14.5 8.875 14.5Z" fill="black"/>
</svg>
